<svg width="70" height="70" viewBox="0 0 70 70" fill="none" xmlns="http://www.w3.org/2000/svg">
<path d="M59.0625 4.375H54.6875V2.1875C54.6875 0.978359 53.7091 0 52.5 0C51.2909 0 50.3125 0.978359 50.3125 2.1875V4.375H45.9375V2.1875C45.9375 0.978359 44.9591 0 43.75 0C42.5409 0 41.5625 0.978359 41.5625 2.1875V4.375H37.1875V2.1875C37.1875 0.978359 36.2091 0 35 0C33.7909 0 32.8125 0.978359 32.8125 2.1875V4.375H28.4375V2.1875C28.4375 0.978359 27.4591 0 26.25 0C25.0409 0 24.0625 0.978359 24.0625 2.1875V4.375H19.6875V2.1875C19.6875 0.978359 18.7091 0 17.5 0C16.2909 0 15.3125 0.978359 15.3125 2.1875V4.375H10.9375C6.10531 4.375 2.1875 8.29281 2.1875 13.125V61.25C2.1875 66.0822 6.10531 70 10.9375 70H59.0625C63.8947 70 67.8125 66.0822 67.8125 61.25V13.125C67.8125 8.29281 63.8947 4.375 59.0625 4.375ZM63.4375 61.25C63.4375 63.6639 61.4742 65.625 59.0625 65.625H10.9375C8.52469 65.625 6.5625 63.6639 6.5625 61.25V13.125C6.5625 10.71 8.52469 8.75 10.9375 8.75H15.3125V10.9375C15.3125 12.1466 16.2909 13.125 17.5 13.125C18.7091 13.125 19.6875 12.1466 19.6875 10.9375V8.75H24.0625V10.9375C24.0625 12.1466 25.0409 13.125 26.25 13.125C27.4591 13.125 28.4375 12.1466 28.4375 10.9375V8.75H32.8125V10.9375C32.8125 12.1466 33.7909 13.125 35 13.125C36.2091 13.125 37.1875 12.1466 37.1875 10.9375V8.75H41.5625V10.9375C41.5625 12.1466 42.5409 13.125 43.75 13.125C44.9591 13.125 45.9375 12.1466 45.9375 10.9375V8.75H50.3125V10.9375C50.3125 12.1466 51.2909 13.125 52.5 13.125C53.7091 13.125 54.6875 12.1466 54.6875 10.9375V8.75H59.0625C61.4742 8.75 63.4375 10.71 63.4375 13.125V61.25Z" fill="#6E84E8"/>
<path d="M10.9375 21.875V61.25H59.0625V21.875H10.9375ZM45.9375 26.25V30.625H41.5625V26.25H45.9375ZM28.4375 39.375H24.0625V35H28.4375V39.375ZM32.8125 35H37.1875V39.375H32.8125V35ZM28.4375 43.75V48.125H24.0625V43.75H28.4375ZM32.8125 43.75H37.1875V48.125H32.8125V43.75ZM41.5625 43.75H45.9375V48.125H41.5625V43.75ZM41.5625 39.375V35H45.9375V39.375H41.5625ZM37.1875 26.25V30.625H32.8125V26.25H37.1875ZM28.4375 26.25V30.625H24.0625V26.25H28.4375ZM15.3125 26.25H19.6875V30.625H15.3125V26.25ZM15.3125 35H19.6875V39.375H15.3125V35ZM15.3125 43.75H19.6875V48.125H15.3125V43.75ZM15.3125 56.875V52.5H19.6875V56.875H15.3125ZM24.0625 56.875V52.5H28.4375V56.875H24.0625ZM32.8125 56.875V52.5H37.1875V56.875H32.8125ZM41.5625 56.875V52.5H45.9375V56.875H41.5625ZM54.6875 56.875H50.3125V52.5H54.6875V56.875ZM54.6875 48.125H50.3125V43.75H54.6875V48.125ZM54.6875 39.375H50.3125V35H54.6875V39.375ZM54.6875 30.625H50.3125V26.25H54.6875V30.625Z" fill="#6E84E8"/>
</svg>
