<svg width="170" height="80" viewBox="0 0 170 80" fill="none" xmlns="http://www.w3.org/2000/svg">
<ellipse cx="46.3636" cy="36.3636" rx="46.3636" ry="33.9394" fill="#4CFFDC"/>
<ellipse cx="93.2424" cy="26.6667" rx="42.7576" ry="26.6667" fill="#4CFFDC"/>
<ellipse cx="136.515" cy="36.3636" rx="33.4848" ry="24.2424" fill="#4CFFDC"/>
<ellipse cx="103.03" cy="46.0606" rx="46.3636" ry="33.9394" fill="#4CFFDC"/>
<path d="M54.3281 45.1562C59.4336 45.0195 62.0508 45.7578 63.3125 46.7734C63.1445 35.0547 52.8906 25.7539 40.9453 26.8906C30.5234 27.8867 22.6875 36.8555 22.6875 47.3164V51.4062C25.0312 49.4531 39.875 45.5469 54.3281 45.1562Z" fill="#F85565"/>
<path d="M54.3281 45.1563C55.7395 45.1076 57.1526 45.1493 58.5586 45.2813C57.8086 34.2852 50.207 25.8008 41.4141 26.8906C33.4023 27.8867 27.375 36.8555 27.375 47.3164V49.4063C33.3867 47.5274 43.957 45.4375 54.3281 45.1563Z" fill="#00ADFE"/>
<path d="M52.7227 45.2148C52.2383 34.25 47.4961 25.8008 42.0078 26.8906C37.0039 27.8867 33.2344 36.8555 33.2344 47.3164V47.8594C39.6424 46.4195 46.1626 45.5348 52.7227 45.2148Z" fill="#F8DC25"/>
<path d="M42.6094 22.3594L42.0234 27.1875H43.9766L43.3906 22.3594C43.3906 22.2558 43.3495 22.1564 43.2762 22.0832C43.203 22.0099 43.1036 21.9687 43 21.9687C42.8964 21.9687 42.797 22.0099 42.7238 22.0832C42.6505 22.1564 42.6094 22.2558 42.6094 22.3594Z" fill="#D8D8DD"/>
<path d="M46.9062 45.6445C46.7539 34.4687 44.8359 25.7891 42.6094 26.8945C40.6562 27.8711 39.1602 36.5117 39.0938 46.707C41.5703 46.2812 44.1992 45.918 46.9062 45.6445Z" fill="#4BC190"/>
<path opacity="0.2" d="M40.6562 38.125C35.7188 39.8789 26.2031 47.1094 22.6875 51.4062C25.0312 49.4531 39.875 45.5469 54.3281 45.1562C59.4336 45.0195 62.0508 45.7578 63.3125 46.7734C63.2629 43.2047 62.2595 39.7142 60.4062 36.664C55.1094 35.2578 47.5703 35.6719 40.6562 38.125Z" fill="#393C54"/>
<path d="M22.6875 51.4062C22.6875 51.4062 37.1406 49.8437 48.8594 49.8437C60.5781 49.8437 63.3125 51.4062 63.3125 51.4062C64.4666 50.7452 65.4095 49.7703 66.0317 48.5949C66.654 47.4195 66.9302 46.0917 66.8281 44.7656C66.4375 37.7344 52.375 36.1719 40.2656 40.4687C35.3281 42.2226 26.2031 47.1094 22.6875 51.4062Z" fill="#515570"/>
<path opacity="0.3" d="M63.875 40.3086C63.0352 44.1875 60.0547 46.6523 55.1094 47.8906C49.4531 49.3047 36.125 49.1172 28.1563 46.7578C25.9219 48.2695 23.957 49.8828 22.6875 51.4062C22.6875 51.4062 37.1406 49.8437 48.8594 49.8437C60.5781 49.8437 63.3125 51.4062 63.3125 51.4062C64.4666 50.7452 65.4095 49.7703 66.0317 48.5949C66.654 47.4195 66.9302 46.0917 66.8281 44.7656C66.7227 42.8867 65.6367 41.4023 63.875 40.3086Z" fill="#393C54"/>
<path d="M57.2031 22.1094C57.2031 20.6055 54.0234 19.375 50.1016 19.375C46.1797 19.375 43 20.5937 43 22.1094C43 22.3633 57.2031 22.3633 57.2031 22.1094Z" fill="#F8DC25"/>
<path d="M28.7969 21.9922C28.7969 23.4961 31.9766 24.7266 35.8984 24.7266C39.8203 24.7266 43 23.4961 43 21.9922C43 21.7188 28.7969 21.7188 28.7969 21.9922Z" fill="#F8DC25"/>
<path opacity="0.5" d="M43.0234 22.1094C43.5117 22.3633 57.2031 22.3594 57.2031 22.1094C57.2031 21.2617 56.1914 20.5039 54.6055 20.0078C51.2031 21.7695 43.4375 22.1094 43.0234 22.1094Z" fill="#F2BC0F"/>
<path opacity="0.5" d="M35.8984 24.7148C39.8047 24.7148 43 23.4961 43 21.9805C43 21.9219 42.3555 21.8789 41.3438 21.8476C39.418 23.418 33.7891 23.9883 31.6719 23.2812C30.0273 22.7344 29.5391 22.1836 29.3906 21.9062C29 21.9297 28.7969 21.9609 28.7969 21.9922C28.7969 23.4961 31.9766 24.7148 35.8984 24.7148Z" fill="#F2BC0F"/>
<path d="M82.664 37.76H83.357C83.6357 37.76 83.8667 37.7233 84.05 37.65C84.2333 37.5693 84.391 37.4447 84.523 37.276L88.912 31.721C89.0953 31.4863 89.286 31.325 89.484 31.237C89.6893 31.1417 89.946 31.094 90.254 31.094H92.806L87.449 37.705C87.2803 37.9103 87.119 38.0827 86.965 38.222C86.811 38.3613 86.646 38.475 86.47 38.563C86.712 38.651 86.9283 38.7757 87.119 38.937C87.317 39.0983 87.5077 39.3037 87.691 39.553L93.213 47H90.595C90.243 47 89.979 46.9523 89.803 46.857C89.6343 46.7543 89.4913 46.6077 89.374 46.417L84.875 40.543C84.7283 40.3523 84.5633 40.2167 84.38 40.136C84.1967 40.048 83.9363 40.004 83.599 40.004H82.664V47H79.705V31.083H82.664V37.76ZM97.7063 35.714V47H94.9893V35.714H97.7063ZM98.1133 32.425C98.1133 32.6597 98.0657 32.8797 97.9703 33.085C97.875 33.2903 97.7467 33.47 97.5853 33.624C97.4313 33.778 97.248 33.9027 97.0353 33.998C96.8227 34.086 96.5953 34.13 96.3533 34.13C96.1187 34.13 95.895 34.086 95.6823 33.998C95.477 33.9027 95.2973 33.778 95.1433 33.624C94.9893 33.47 94.8647 33.2903 94.7693 33.085C94.6813 32.8797 94.6373 32.6597 94.6373 32.425C94.6373 32.183 94.6813 31.9557 94.7693 31.743C94.8647 31.5303 94.9893 31.347 95.1433 31.193C95.2973 31.039 95.477 30.918 95.6823 30.83C95.895 30.7347 96.1187 30.687 96.3533 30.687C96.5953 30.687 96.8227 30.7347 97.0353 30.83C97.248 30.918 97.4313 31.039 97.5853 31.193C97.7467 31.347 97.875 31.5303 97.9703 31.743C98.0657 31.9557 98.1133 32.183 98.1133 32.425ZM108.728 47C108.376 47 108.145 46.835 108.035 46.505L107.815 45.416C107.58 45.68 107.335 45.9183 107.078 46.131C106.821 46.3437 106.543 46.527 106.242 46.681C105.949 46.835 105.63 46.9523 105.285 47.033C104.948 47.121 104.581 47.165 104.185 47.165C103.569 47.165 103.004 47.0367 102.491 46.78C101.978 46.5233 101.534 46.153 101.16 45.669C100.793 45.1777 100.507 44.5727 100.302 43.854C100.104 43.1353 100.005 42.314 100.005 41.39C100.005 40.554 100.119 39.7767 100.346 39.058C100.573 38.3393 100.9 37.716 101.325 37.188C101.75 36.66 102.26 36.2493 102.854 35.956C103.448 35.6553 104.115 35.505 104.856 35.505C105.487 35.505 106.026 35.6077 106.473 35.813C106.92 36.011 107.32 36.2787 107.672 36.616V30.654H110.389V47H108.728ZM105.109 45.009C105.674 45.009 106.154 44.8917 106.55 44.657C106.946 44.4223 107.32 44.0887 107.672 43.656V38.596C107.364 38.222 107.027 37.958 106.66 37.804C106.301 37.65 105.912 37.573 105.494 37.573C105.083 37.573 104.709 37.65 104.372 37.804C104.042 37.958 103.76 38.1927 103.525 38.508C103.298 38.816 103.122 39.212 102.997 39.696C102.872 40.1727 102.81 40.7373 102.81 41.39C102.81 42.05 102.861 42.611 102.964 43.073C103.074 43.5277 103.228 43.9017 103.426 44.195C103.624 44.481 103.866 44.69 104.152 44.822C104.438 44.9467 104.757 45.009 105.109 45.009ZM116.446 44.558H122.815V47H113.487V31.094H116.446V44.558ZM127.591 35.714V47H124.874V35.714H127.591ZM127.998 32.425C127.998 32.6597 127.95 32.8797 127.855 33.085C127.76 33.2903 127.631 33.47 127.47 33.624C127.316 33.778 127.133 33.9027 126.92 33.998C126.707 34.086 126.48 34.13 126.238 34.13C126.003 34.13 125.78 34.086 125.567 33.998C125.362 33.9027 125.182 33.778 125.028 33.624C124.874 33.47 124.749 33.2903 124.654 33.085C124.566 32.8797 124.522 32.6597 124.522 32.425C124.522 32.183 124.566 31.9557 124.654 31.743C124.749 31.5303 124.874 31.347 125.028 31.193C125.182 31.039 125.362 30.918 125.567 30.83C125.78 30.7347 126.003 30.687 126.238 30.687C126.48 30.687 126.707 30.7347 126.92 30.83C127.133 30.918 127.316 31.039 127.47 31.193C127.631 31.347 127.76 31.5303 127.855 31.743C127.95 31.9557 127.998 32.183 127.998 32.425ZM131.155 47V37.76L130.176 37.606C129.963 37.5693 129.791 37.496 129.659 37.386C129.534 37.276 129.472 37.122 129.472 36.924V35.813H131.155V34.977C131.155 34.3317 131.25 33.7523 131.441 33.239C131.639 32.7257 131.917 32.2893 132.277 31.93C132.643 31.5707 133.087 31.2957 133.608 31.105C134.128 30.9143 134.715 30.819 135.368 30.819C135.888 30.819 136.372 30.8887 136.82 31.028L136.765 32.392C136.75 32.6047 136.651 32.7367 136.468 32.788C136.284 32.8393 136.072 32.865 135.83 32.865C135.507 32.865 135.217 32.9017 134.961 32.975C134.711 33.041 134.499 33.162 134.323 33.338C134.147 33.5067 134.011 33.734 133.916 34.02C133.828 34.2987 133.784 34.647 133.784 35.065V35.813H136.721V37.749H133.872V47H131.155ZM143.048 35.538C143.759 35.538 144.412 35.6517 145.006 35.879C145.607 36.1063 146.124 36.44 146.557 36.88C146.989 37.3127 147.327 37.848 147.569 38.486C147.811 39.1167 147.932 39.839 147.932 40.653C147.932 40.8583 147.921 41.0307 147.899 41.17C147.884 41.302 147.851 41.4083 147.8 41.489C147.756 41.5623 147.693 41.6173 147.613 41.654C147.532 41.6833 147.429 41.698 147.305 41.698H140.331C140.411 42.8567 140.723 43.7073 141.266 44.25C141.808 44.7927 142.527 45.064 143.422 45.064C143.862 45.064 144.239 45.0127 144.555 44.91C144.877 44.8073 145.156 44.6937 145.391 44.569C145.633 44.4443 145.842 44.3307 146.018 44.228C146.201 44.1253 146.377 44.074 146.546 44.074C146.656 44.074 146.751 44.096 146.832 44.14C146.912 44.184 146.982 44.2463 147.041 44.327L147.833 45.317C147.532 45.669 147.195 45.966 146.821 46.208C146.447 46.4427 146.054 46.6333 145.644 46.78C145.24 46.9193 144.826 47.0183 144.401 47.077C143.983 47.1357 143.576 47.165 143.18 47.165C142.395 47.165 141.665 47.0367 140.991 46.78C140.316 46.516 139.729 46.131 139.231 45.625C138.732 45.1117 138.34 44.481 138.054 43.733C137.768 42.9777 137.625 42.105 137.625 41.115C137.625 40.345 137.749 39.6227 137.999 38.948C138.248 38.266 138.604 37.6757 139.066 37.177C139.535 36.671 140.103 36.2713 140.771 35.978C141.445 35.6847 142.204 35.538 143.048 35.538ZM143.103 37.485C142.311 37.485 141.691 37.7087 141.244 38.156C140.796 38.6033 140.51 39.2377 140.386 40.059H145.49C145.49 39.707 145.442 39.377 145.347 39.069C145.251 38.7537 145.105 38.4787 144.907 38.244C144.709 38.0093 144.459 37.826 144.159 37.694C143.858 37.5547 143.506 37.485 143.103 37.485Z" fill="white"/>
</svg>
