<svg width="54" height="67" viewBox="0 0 54 67" fill="none" xmlns="http://www.w3.org/2000/svg">
<path d="M52.9219 8.17188C47.125 2.59375 39.1406 0.1875 27 0.1875C14.8594 0.1875 6.875 2.59375 1.07813 8.17188L0.75 8.5V31.0312V33C0.75 47.9844 11.1406 61.3281 26.6719 66.1406L27 66.25L27.3281 66.1406C42.8594 61.3281 53.25 47.9844 53.25 33V8.5L52.9219 8.17188Z" fill="#6E84E8"/>
<path d="M46.4688 11.6719C42.2031 8.39063 35.9688 6.96875 27 6.96875V59.25L27.2188 59.1406C39.0313 54.7656 46.6875 44.4844 46.6875 33V11.7813L46.4688 11.6719Z" fill="#6E84E8"/>
<path d="M7.53125 11.6719L7.3125 11.7813V33C7.3125 44.4844 14.9687 54.7656 26.7812 59.1406L27 59.25V6.96875C18.0312 6.96875 11.7969 8.39063 7.53125 11.6719Z" fill="#6E84E8"/>
<path d="M25.25 45.25L14.3125 29.9375L17.8125 27.3125L26.4531 39.4531L35.9687 16.8125L39.9062 18.5625L28.9687 44.8125L25.25 45.25Z" fill="#81E84F"/>
</svg>
