<?xml version="1.0" encoding="utf-8"?><svg width="70" height="70" fill="none" xmlns="http://www.w3.org/2000/svg" viewBox="0 0 70 70"><path d="M51.953 34.453c0 14.195-10.308 20.78-16.953 20.78s-16.953-6.585-16.953-20.78C18.047 20.257 35 3.828 35 3.828s16.953 16.43 16.953 30.625z" fill="#6E84E8"/><path fill-rule="evenodd" clip-rule="evenodd" d="M34.016 13.022a1.092 1.092 0 00-1.077 1.11v11.015l-4.135-4.135a1.093 1.093 0 10-1.547 1.546l5.682 5.683v6.203l-5.23-5.23a1.095 1.095 0 00-1.855.988c.045.213.153.408.31.56l6.775 6.776v6.203l-5.776-5.776a1.094 1.094 0 10-1.547 1.546l7.323 7.323v8.186c.711.129 1.407.214 2.06.214.041 0 .086-.008.128-.009v-8.39l7.327-7.324a1.095 1.095 0 10-1.546-1.546l-5.781 5.776v-6.203l6.78-6.777a1.093 1.093 0 10-1.546-1.546l-5.234 5.23V28.24l5.687-5.683a1.096 1.096 0 00.016-1.562 1.095 1.095 0 00-1.563.016l-4.14 4.135V14.133a1.094 1.094 0 00-1.11-1.11z" fill="#6E84E8"/><path fill-rule="evenodd" clip-rule="evenodd" d="M34.982 12.576a1.095 1.095 0 00-1.077 1.11v51.377a1.096 1.096 0 001.516 1.025 1.094 1.094 0 00.672-1.025V13.687a1.094 1.094 0 00-1.111-1.111z" fill="#6E84E8"/><path fill-rule="evenodd" clip-rule="evenodd" d="M28.983 20.232a1.093 1.093 0 00-.76 1.88l6.002 6.003a1.094 1.094 0 001.547 0l6.007-6.003a1.092 1.092 0 00-.344-1.802 1.094 1.094 0 00-1.203.256L35 25.794l-5.23-5.23a1.095 1.095 0 00-.786-.333z" fill="#6E84E8"/><path fill-rule="evenodd" clip-rule="evenodd" d="M27.89 28.435a1.093 1.093 0 00-.761 1.88l7.096 7.097a1.094 1.094 0 001.547 0l7.1-7.097a1.095 1.095 0 10-1.546-1.546L35 35.092l-6.324-6.323a1.093 1.093 0 00-.786-.334z" fill="#6E84E8"/><path fill-rule="evenodd" clip-rule="evenodd" d="M27.343 37.185a1.093 1.093 0 00-.761 1.88l7.643 7.644a1.094 1.094 0 001.547 0l7.648-7.644a1.096 1.096 0 00.016-1.562 1.093 1.093 0 00-1.563.016L35 44.389l-6.87-6.87a1.093 1.093 0 00-.787-.334z" fill="#6E84E8"/></svg>