<?xml version="1.0" encoding="utf-8"?><svg width="170" height="80" fill="none" xmlns="http://www.w3.org/2000/svg" viewBox="0 0 170 80"><ellipse cx="46.364" cy="36.364" rx="46.364" ry="33.939" fill="#4CFFDC"/><ellipse cx="93.242" cy="26.667" rx="42.758" ry="26.667" fill="#4CFFDC"/><ellipse cx="136.515" cy="36.364" rx="33.485" ry="24.242" fill="#4CFFDC"/><ellipse cx="103.03" cy="46.061" rx="46.364" ry="33.939" fill="#4CFFDC"/><path d="M54.328 45.156c5.106-.136 7.723.602 8.984 1.617-.167-11.718-10.421-21.02-22.367-19.882-10.422.996-18.258 9.965-18.258 20.425v4.09c2.344-1.953 17.188-5.86 31.641-6.25z" fill="#F85565"/><path d="M54.328 45.156a33.062 33.062 0 014.23.125c-.75-10.996-8.351-19.48-17.144-18.39-8.012.996-14.039 9.965-14.039 20.425v2.09c6.012-1.879 16.582-3.968 26.953-4.25z" fill="#00ADFE"/><path d="M52.723 45.215C52.238 34.25 47.496 25.8 42.008 26.89c-5.004.996-8.774 9.965-8.774 20.425v.543a114.29 114.29 0 0119.489-2.644z" fill="#F8DC25"/><path d="M42.61 22.36l-.587 4.828h1.954l-.586-4.829a.39.39 0 10-.782 0z" fill="#D8D8DD"/><path d="M46.906 45.645c-.152-11.176-2.07-19.856-4.297-18.75-1.953.976-3.449 9.617-3.515 19.812 2.476-.426 5.105-.789 7.812-1.063z" fill="#4BC190"/><path opacity=".2" d="M40.656 38.125c-4.937 1.754-14.453 8.984-17.968 13.281 2.343-1.953 17.187-5.86 31.64-6.25 5.106-.136 7.723.602 8.984 1.617a20.004 20.004 0 00-2.906-10.109c-5.297-1.406-12.836-.992-19.75 1.461z" fill="#393C54"/><path d="M22.688 51.406s14.453-1.562 26.171-1.562c11.72 0 14.453 1.562 14.453 1.562a7.03 7.03 0 003.516-6.64c-.39-7.032-14.453-8.594-26.562-4.297-4.938 1.754-14.063 6.64-17.578 10.937z" fill="#515570"/><path opacity=".3" d="M63.875 40.309c-.84 3.879-3.82 6.343-8.766 7.582-5.656 1.414-18.984 1.226-26.953-1.133-2.234 1.511-4.199 3.125-5.468 4.648 0 0 14.453-1.562 26.171-1.562 11.72 0 14.453 1.562 14.453 1.562a7.03 7.03 0 003.516-6.64c-.105-1.88-1.191-3.364-2.953-4.457z" fill="#393C54"/><path d="M57.203 22.11c0-1.505-3.18-2.735-7.101-2.735-3.922 0-7.102 1.219-7.102 2.734 0 .254 14.203.254 14.203 0zM28.797 21.992c0 1.504 3.18 2.735 7.101 2.735 3.922 0 7.102-1.23 7.102-2.735 0-.273-14.203-.273-14.203 0z" fill="#F8DC25"/><path opacity=".5" d="M43.023 22.11c.489.253 14.18.25 14.18 0 0-.848-1.012-1.606-2.598-2.102-3.402 1.762-11.167 2.101-11.582 2.101zM35.898 24.715c3.907 0 7.102-1.219 7.102-2.735 0-.058-.645-.101-1.656-.132-1.926 1.57-7.555 2.14-9.672 1.433-1.645-.547-2.133-1.097-2.281-1.375-.391.024-.594.055-.594.086 0 1.504 3.18 2.723 7.101 2.723z" fill="#F2BC0F"/><path d="M82.664 37.76h.693c.279 0 .51-.037.693-.11a1.22 1.22 0 00.473-.374l4.389-5.555c.183-.235.374-.396.572-.484.205-.095.462-.143.77-.143h2.552l-5.357 6.611c-.169.205-.33.378-.484.517a2.21 2.21 0 01-.495.341c.242.088.458.213.649.374.198.161.389.367.572.616L93.213 47h-2.618c-.352 0-.616-.048-.792-.143a1.298 1.298 0 01-.429-.44l-4.499-5.874a1.282 1.282 0 00-.495-.407c-.183-.088-.444-.132-.781-.132h-.935V47h-2.959V31.083h2.959v6.677zm15.042-2.046V47H94.99V35.714h2.717zm.407-3.289c0 .235-.047.455-.143.66a1.765 1.765 0 01-.385.539 1.823 1.823 0 01-.55.374c-.212.088-.44.132-.682.132-.234 0-.458-.044-.67-.132a1.866 1.866 0 01-.54-.374 1.868 1.868 0 01-.374-.539 1.657 1.657 0 01-.132-.66c0-.242.044-.47.132-.682.096-.213.22-.396.374-.55.154-.154.334-.275.54-.363.212-.095.436-.143.67-.143.242 0 .47.048.682.143.213.088.396.209.55.363.162.154.29.337.385.55.096.213.143.44.143.682zM108.728 47c-.352 0-.583-.165-.693-.495l-.22-1.089a6.75 6.75 0 01-.737.715 4.572 4.572 0 01-.836.55 4.01 4.01 0 01-.957.352 4.347 4.347 0 01-1.1.132 3.733 3.733 0 01-1.694-.385 3.85 3.85 0 01-1.331-1.111c-.367-.491-.653-1.096-.858-1.815-.198-.719-.297-1.54-.297-2.464 0-.836.114-1.613.341-2.332a5.674 5.674 0 01.979-1.87 4.504 4.504 0 011.529-1.232c.594-.3 1.261-.451 2.002-.451.631 0 1.17.103 1.617.308.447.198.847.466 1.199.803v-5.962h2.717V47h-1.661zm-3.619-1.991c.565 0 1.045-.117 1.441-.352.396-.235.77-.568 1.122-1.001v-5.06c-.308-.374-.645-.638-1.012-.792a2.927 2.927 0 00-1.166-.231c-.411 0-.785.077-1.122.231-.33.154-.612.389-.847.704-.227.308-.403.704-.528 1.188-.125.477-.187 1.041-.187 1.694 0 .66.051 1.221.154 1.683.11.455.264.829.462 1.122.198.286.44.495.726.627.286.125.605.187.957.187zm11.337-.451h6.369V47h-9.328V31.094h2.959v13.464zm11.145-8.844V47h-2.717V35.714h2.717zm.407-3.289c0 .235-.048.455-.143.66a1.767 1.767 0 01-.385.539 1.82 1.82 0 01-.55.374c-.213.088-.44.132-.682.132-.235 0-.458-.044-.671-.132a1.86 1.86 0 01-.913-.913 1.657 1.657 0 01-.132-.66c0-.242.044-.47.132-.682.095-.213.22-.396.374-.55.154-.154.334-.275.539-.363.213-.095.436-.143.671-.143.242 0 .469.048.682.143.213.088.396.209.55.363.161.154.29.337.385.55.095.213.143.44.143.682zM131.155 47v-9.24l-.979-.154a1.076 1.076 0 01-.517-.22c-.125-.11-.187-.264-.187-.462v-1.111h1.683v-.836c0-.645.095-1.225.286-1.738.198-.513.476-.95.836-1.309.366-.36.81-.634 1.331-.825.52-.19 1.107-.286 1.76-.286.52 0 1.004.07 1.452.209l-.055 1.364c-.015.213-.114.345-.297.396a2.38 2.38 0 01-.638.077 3.16 3.16 0 00-.869.11c-.25.066-.462.187-.638.363a1.64 1.64 0 00-.407.682c-.088.279-.132.627-.132 1.045v.748h2.937v1.936h-2.849V47h-2.717zm11.893-11.462c.711 0 1.364.114 1.958.341a4.26 4.26 0 011.551 1.001c.432.433.77.968 1.012 1.606.242.63.363 1.353.363 2.167 0 .205-.011.378-.033.517a.754.754 0 01-.099.319.414.414 0 01-.187.165.918.918 0 01-.308.044h-6.974c.08 1.159.392 2.01.935 2.552.542.543 1.261.814 2.156.814.44 0 .817-.051 1.133-.154.322-.103.601-.216.836-.341.242-.125.451-.238.627-.341a1.08 1.08 0 01.528-.154.59.59 0 01.286.066c.08.044.15.106.209.187l.792.99a4.657 4.657 0 01-1.012.891 6.034 6.034 0 01-1.177.572c-.404.14-.818.238-1.243.297a8.777 8.777 0 01-1.221.088 6.101 6.101 0 01-2.189-.385 4.99 4.99 0 01-1.76-1.155c-.499-.513-.891-1.144-1.177-1.892-.286-.755-.429-1.628-.429-2.618 0-.77.124-1.492.374-2.167a5.194 5.194 0 011.067-1.771 5.074 5.074 0 011.705-1.199c.674-.293 1.433-.44 2.277-.44zm.055 1.947c-.792 0-1.412.224-1.859.671-.448.447-.734 1.082-.858 1.903h5.104c0-.352-.048-.682-.143-.99a2.301 2.301 0 00-.44-.825 2.033 2.033 0 00-.748-.55 2.492 2.492 0 00-1.056-.209z" fill="#fff"/></svg>