<svg width="63" height="52" viewBox="0 0 63 52" fill="none" xmlns="http://www.w3.org/2000/svg">
<path d="M53.3377 29.5L47.9244 32.2222C46.6752 32.8055 45.2178 32.8055 44.1768 32.2222L14.1956 15.3055C13.571 14.9166 12.53 15.1111 12.1136 15.8889L11.489 17.0555C11.0726 17.6389 11.2808 18.4166 11.9054 18.8055L25.2303 26C23.9811 26.9722 23.1483 28.5278 23.1483 30.0833C23.1483 30.8611 23.3565 31.6389 23.7729 32.4166C23.7729 32.8055 23.5647 34.5555 21.6909 35.9166C19.8171 37.4722 18.1515 37.4722 17.7351 37.4722H8.15775V36.3055H6.90854V35.1389C6.90854 31.6389 3.9937 28.9166 0.246063 28.9166V51.2778C3.9937 51.2778 6.90854 48.5555 6.90854 45.0555V43.8889H8.15775V41.3611H17.7351C17.7351 41.3611 21.4827 41.5555 24.1893 39.4166C26.2714 37.6666 27.3124 36.1111 27.5206 35.5278C27.937 35.5278 28.3534 35.7222 28.7698 35.7222C31.4764 35.7222 33.9748 33.9722 34.3912 31.4444L47.7162 38.8333C47.9244 39.0278 48.1326 38.8333 48.3408 38.6389L53.7541 30.0833C54.1705 29.6944 53.7541 29.3055 53.3377 29.5Z" fill="#6E84E8"/>
<path d="M62.2903 32.2222C63.1231 30.8611 62.4985 29.1111 61.0411 28.3333L60.4165 27.9444L60.8329 27.1667L58.3345 25.8055L51.4638 37.2778L53.9622 38.6389L54.3787 37.8611L55.2115 38.25C56.6689 39.0278 58.5427 38.4444 59.3755 37.0833L62.2903 32.2222Z" fill="#6E84E8"/>
<path d="M60.2083 21.1389L36.6814 8.11114L32.9338 13.5556L30.8518 12.1945L34.3912 6.75002L32.5174 5.7778L28.978 11.2222L26.6877 9.86113L30.4354 4.61114L28.5616 3.63891L25.2303 8.69447L22.9401 7.33336L26.2713 2.2778L24.6057 1.30558C24.6057 1.30558 22.9401 0.527803 21.2745 0.722247C18.7761 0.916692 17.9432 2.2778 17.9432 2.2778L11.6972 11.2222L44.1767 29.6945C45.0095 30.2778 46.2588 30.2778 47.0916 29.6945L60.2083 23.0834C61.2493 22.8889 61.2493 21.5278 60.2083 21.1389Z" fill="#6E84E8"/>
</svg>
