<svg width="70" height="70" viewBox="0 0 70 70" fill="none" xmlns="http://www.w3.org/2000/svg">
<path d="M51.9531 34.4526C51.9531 48.648 41.6447 55.2339 35 55.2339C28.3553 55.2339 18.0469 48.648 18.0469 34.4526C18.0469 20.2573 35 3.82764 35 3.82764C35 3.82764 51.9531 20.2573 51.9531 34.4526Z" fill="#6E84E8"/>
<path fill-rule="evenodd" clip-rule="evenodd" d="M34.0161 13.0221C33.8724 13.0243 33.7307 13.0548 33.5988 13.1119C33.467 13.1689 33.3477 13.2514 33.2477 13.3545C33.1477 13.4577 33.0689 13.5795 33.0161 13.7131C32.9632 13.8466 32.9372 13.9893 32.9394 14.1329V25.1473L28.8037 21.0116C28.7017 20.9062 28.5796 20.8223 28.4445 20.7651C28.3095 20.7078 28.1642 20.6783 28.0175 20.6783C27.7997 20.6784 27.5868 20.7435 27.4062 20.8653C27.2256 20.9871 27.0855 21.16 27.0038 21.362C26.9221 21.5639 26.9026 21.7857 26.9477 21.9988C26.9928 22.2119 27.1005 22.4067 27.257 22.5582L32.9394 28.2406V34.4442L27.7099 29.2147C27.6079 29.1093 27.4858 29.0255 27.3508 28.9682C27.2157 28.911 27.0705 28.8815 26.9238 28.8815C26.7059 28.8815 26.493 28.9466 26.3124 29.0684C26.1318 29.1902 25.9917 29.3632 25.91 29.5651C25.8283 29.7671 25.8088 29.9888 25.8539 30.2019C25.8991 30.415 26.0067 30.6098 26.1633 30.7613L32.9394 37.5375V43.7411L27.163 37.9647C27.0611 37.8593 26.9389 37.7755 26.8039 37.7182C26.6688 37.661 26.5236 37.6315 26.3769 37.6315C26.1591 37.6315 25.9462 37.6966 25.7656 37.8184C25.5849 37.9402 25.4448 38.1132 25.3631 38.3151C25.2814 38.5171 25.2619 38.7388 25.3071 38.9519C25.3522 39.165 25.4599 39.3598 25.6164 39.5113L32.9394 46.8343V55.0204C33.6502 55.1487 34.3455 55.234 34.9987 55.234C35.0401 55.234 35.0851 55.2259 35.1269 55.2255V46.8344L42.4542 39.5114C42.5592 39.4106 42.643 39.2899 42.7008 39.1563C42.7585 39.0227 42.789 38.879 42.7905 38.7334C42.792 38.5879 42.7643 38.4436 42.7093 38.3088C42.6543 38.1741 42.5731 38.0517 42.4702 37.9488C42.3673 37.8459 42.2449 37.7646 42.1101 37.7096C41.9754 37.6546 41.8311 37.627 41.6855 37.6285C41.54 37.6299 41.3963 37.6605 41.2627 37.7182C41.1291 37.7759 41.0083 37.8598 40.9076 37.9648L35.1269 43.7411V37.5375L41.9073 30.7614C42.0123 30.6606 42.0962 30.5399 42.1539 30.4063C42.2117 30.2727 42.2421 30.1289 42.2436 29.9834C42.2451 29.8379 42.2176 29.6936 42.1626 29.5588C42.1076 29.4241 42.0262 29.3017 41.9233 29.1988C41.8204 29.0959 41.698 29.0145 41.5632 28.9595C41.4285 28.9045 41.2842 28.877 41.1387 28.8785C40.9931 28.8799 40.8494 28.9105 40.7158 28.9682C40.5822 29.0259 40.4615 29.1098 40.3607 29.2148L35.1269 34.4442V28.2406L40.8136 22.5583C40.9185 22.4575 41.0024 22.3368 41.0602 22.2032C41.1179 22.0696 41.1484 21.9258 41.1499 21.7803C41.1514 21.6348 41.1237 21.4904 41.0687 21.3557C41.0137 21.221 40.9325 21.0986 40.8296 20.9957C40.7267 20.8928 40.6042 20.8114 40.4695 20.7564C40.3348 20.7014 40.1904 20.6739 40.0449 20.6753C39.8994 20.6768 39.7557 20.7073 39.6221 20.7651C39.4885 20.8228 39.3677 20.9066 39.2669 21.0116L35.1269 25.1474V14.133C35.1292 13.9865 35.1021 13.841 35.0471 13.7052C34.9921 13.5694 34.9104 13.446 34.8067 13.3424C34.7031 13.2387 34.5797 13.157 34.4439 13.102C34.308 13.047 34.1626 13.0198 34.0161 13.0221V13.0221Z" fill="#6E84E8"/>
<path fill-rule="evenodd" clip-rule="evenodd" d="M34.9817 12.5759C34.8381 12.5782 34.6963 12.6088 34.5645 12.6658C34.4326 12.7228 34.3133 12.8052 34.2133 12.9084C34.1133 13.0115 34.0347 13.1333 33.9818 13.2669C33.9289 13.4004 33.9028 13.5431 33.905 13.6868V65.0631C33.903 65.2081 33.9298 65.352 33.9838 65.4865C34.0379 65.621 34.1181 65.7434 34.2199 65.8466C34.3216 65.9498 34.4429 66.0318 34.5766 66.0877C34.7103 66.1437 34.8538 66.1725 34.9988 66.1725C35.1437 66.1725 35.2872 66.1437 35.421 66.0877C35.5547 66.0318 35.6759 65.9498 35.7777 65.8466C35.8795 65.7434 35.9597 65.621 36.0138 65.4865C36.0678 65.352 36.0946 65.2081 36.0925 65.0631V13.6868C36.0948 13.5403 36.0677 13.3948 36.0127 13.259C35.9577 13.1232 35.8758 12.9999 35.7722 12.8962C35.6686 12.7926 35.5453 12.7108 35.4095 12.6558C35.2737 12.6008 35.1282 12.5736 34.9817 12.5759Z" fill="#6E84E8"/>
<path fill-rule="evenodd" clip-rule="evenodd" d="M28.9831 20.2323C28.7653 20.2323 28.5524 20.2974 28.3718 20.4192C28.1911 20.541 28.051 20.7139 27.9693 20.9158C27.8876 21.1178 27.8681 21.3396 27.9133 21.5527C27.9584 21.7658 28.0661 21.9606 28.2226 22.1121L34.2254 28.1149C34.4305 28.32 34.7087 28.4351 34.9987 28.4351C35.2888 28.4351 35.5669 28.32 35.7721 28.1149L41.7791 22.1121C41.8841 22.0114 41.968 21.8907 42.0257 21.7571C42.0835 21.6235 42.114 21.4797 42.1155 21.3341C42.1169 21.1886 42.0893 21.0443 42.0343 20.9096C41.9793 20.7748 41.8979 20.6524 41.795 20.5495C41.6921 20.4466 41.5698 20.3654 41.4351 20.3104C41.3003 20.2554 41.156 20.2277 41.0105 20.2292C40.865 20.2307 40.7211 20.2612 40.5875 20.3189C40.4539 20.3766 40.3333 20.4605 40.2325 20.5655L34.9987 25.795L29.7692 20.5655C29.6672 20.4601 29.5451 20.3763 29.4101 20.319C29.275 20.2618 29.1298 20.2323 28.9831 20.2323Z" fill="#6E84E8"/>
<path fill-rule="evenodd" clip-rule="evenodd" d="M27.8894 28.4354C27.6715 28.4354 27.4586 28.5005 27.278 28.6223C27.0974 28.7441 26.9573 28.917 26.8756 29.119C26.7939 29.3209 26.7744 29.5427 26.8195 29.7558C26.8646 29.969 26.9723 30.1638 27.1289 30.3153L34.2254 37.4118C34.4305 37.6169 34.7087 37.732 34.9987 37.732C35.2888 37.732 35.5669 37.6169 35.7721 37.4118L42.8729 30.3153C42.9779 30.2145 43.0617 30.0938 43.1195 29.9602C43.1772 29.8267 43.2077 29.6828 43.2092 29.5373C43.2107 29.3918 43.183 29.2474 43.128 29.1127C43.073 28.978 42.9918 28.8555 42.8889 28.7526C42.786 28.6497 42.6635 28.5685 42.5288 28.5135C42.3941 28.4585 42.2498 28.4308 42.1042 28.4323C41.9587 28.4338 41.8148 28.4643 41.6813 28.522C41.5477 28.5798 41.427 28.6636 41.3263 28.7686L34.9987 35.0919L28.6755 28.7686C28.5735 28.6632 28.4514 28.5794 28.3163 28.5222C28.1813 28.4649 28.0361 28.4354 27.8894 28.4354Z" fill="#6E84E8"/>
<path fill-rule="evenodd" clip-rule="evenodd" d="M27.3425 37.1854C27.1246 37.1854 26.9117 37.2505 26.7311 37.3723C26.5505 37.4941 26.4104 37.667 26.3287 37.869C26.247 38.0709 26.2275 38.2927 26.2726 38.5058C26.3178 38.719 26.4255 38.9138 26.582 39.0653L34.2254 46.7087C34.4305 46.9137 34.7087 47.0289 34.9987 47.0289C35.2888 47.0289 35.5669 46.9137 35.7721 46.7087L43.4198 39.0653C43.5247 38.9645 43.6086 38.8438 43.6664 38.7102C43.7241 38.5767 43.7546 38.4328 43.7561 38.2873C43.7576 38.1418 43.7299 37.9974 43.6749 37.8627C43.6199 37.728 43.5385 37.6056 43.4356 37.5027C43.3327 37.3998 43.2104 37.3185 43.0757 37.2635C42.941 37.2085 42.7966 37.1808 42.6511 37.1823C42.5056 37.1838 42.3617 37.2143 42.2281 37.272C42.0946 37.3298 41.9739 37.4136 41.8731 37.5186L34.9987 44.3887L28.1286 37.5186C28.0266 37.4132 27.9045 37.3294 27.7695 37.2722C27.6344 37.2149 27.4892 37.1854 27.3425 37.1854Z" fill="#6E84E8"/>
</svg>
