<?xml version="1.0" encoding="utf-8"?><svg width="70" height="70" fill="none" xmlns="http://www.w3.org/2000/svg" viewBox="0 0 70 70"><path d="M59.063 4.375h-4.376V2.187C54.688.978 53.71 0 52.5 0c-1.21 0-2.188.978-2.188 2.188v2.187h-4.374V2.187C45.938.978 44.959 0 43.75 0c-1.21 0-2.188.978-2.188 2.188v2.187h-4.374V2.187C37.188.978 36.209 0 35 0c-1.21 0-2.188.978-2.188 2.188v2.187h-4.374V2.187C28.438.978 27.459 0 26.25 0c-1.21 0-2.188.978-2.188 2.188v2.187h-4.375V2.187C19.688.978 18.71 0 17.5 0c-1.21 0-2.188.978-2.188 2.188v2.187h-4.374a8.75 8.75 0 00-8.75 8.75V61.25a8.75 8.75 0 008.75 8.75h48.124a8.75 8.75 0 008.75-8.75V13.125a8.75 8.75 0 00-8.75-8.75zm4.374 56.875a4.38 4.38 0 01-4.374 4.375H10.937a4.379 4.379 0 01-4.374-4.375V13.125a4.378 4.378 0 014.375-4.375h4.374v2.188c0 1.209.979 2.187 2.188 2.187 1.21 0 2.188-.978 2.188-2.188V8.75h4.375v2.188c0 1.209.978 2.187 2.187 2.187 1.21 0 2.188-.978 2.188-2.188V8.75h4.375v2.188c0 1.209.978 2.187 2.187 2.187 1.21 0 2.188-.978 2.188-2.188V8.75h4.374v2.188c0 1.209.979 2.187 2.188 2.187 1.21 0 2.188-.978 2.188-2.188V8.75h4.374v2.188c0 1.209.979 2.187 2.188 2.187 1.21 0 2.188-.978 2.188-2.188V8.75h4.374a4.379 4.379 0 014.376 4.375V61.25z" fill="#6E84E8"/><path d="M10.938 21.875V61.25h48.124V21.875H10.938zm35 4.375v4.375h-4.376V26.25h4.376zm-17.5 13.125h-4.375V35h4.375v4.375zM32.813 35h4.374v4.375h-4.374V35zm-4.376 8.75v4.375h-4.375V43.75h4.375zm4.375 0h4.376v4.375h-4.376V43.75zm8.75 0h4.376v4.375h-4.376V43.75zm0-4.375V35h4.376v4.375h-4.376zM37.188 26.25v4.375h-4.376V26.25h4.376zm-8.75 0v4.375h-4.375V26.25h4.375zm-13.125 0h4.374v4.375h-4.375V26.25zm0 8.75h4.374v4.375h-4.375V35zm0 8.75h4.374v4.375h-4.375V43.75zm0 13.125V52.5h4.374v4.375h-4.375zm8.75 0V52.5h4.375v4.375h-4.375zm8.75 0V52.5h4.374v4.375h-4.374zm8.75 0V52.5h4.374v4.375h-4.374zm13.124 0h-4.374V52.5h4.374v4.375zm0-8.75h-4.374V43.75h4.374v4.375zm0-8.75h-4.374V35h4.374v4.375zm0-8.75h-4.374V26.25h4.374v4.375z" fill="#6E84E8"/></svg>