<?xml version="1.0" encoding="utf-8"?><svg width="63" height="52" fill="none" xmlns="http://www.w3.org/2000/svg" viewBox="0 0 63 52"><path d="M53.338 29.5l-5.414 2.722c-1.249.584-2.706.584-3.747 0L14.196 15.306c-.625-.39-1.666-.195-2.082.583l-.625 1.166c-.416.584-.208 1.362.416 1.75L25.23 26c-1.249.972-2.082 2.528-2.082 4.083 0 .778.209 1.556.625 2.334 0 .389-.208 2.139-2.082 3.5-1.874 1.555-3.54 1.555-3.956 1.555H8.158v-1.166h-1.25v-1.167c0-3.5-2.914-6.222-6.662-6.222v22.36c3.748 0 6.663-2.721 6.663-6.221v-1.167h1.249V41.36h9.577s3.748.195 6.454-1.944c2.082-1.75 3.123-3.306 3.332-3.89.416 0 .832.195 1.249.195 2.706 0 5.205-1.75 5.621-4.278l13.325 7.39c.208.194.417 0 .625-.195l5.413-8.556c.416-.389 0-.777-.416-.583zM62.29 32.222c.833-1.36.209-3.11-1.249-3.889l-.624-.389.416-.777-2.498-1.362-6.871 11.473 2.498 1.36.417-.777.833.389c1.457.778 3.33.194 4.163-1.167l2.915-4.86z" fill="#6E84E8"/><path d="M60.208 21.139L36.681 8.11l-3.747 5.445-2.082-1.361 3.54-5.445-1.875-.972-3.539 5.444-2.29-1.36 3.747-5.25-1.873-.973-3.332 5.055-2.29-1.36 3.331-5.056-1.665-.972S22.94.528 21.274.722c-2.498.195-3.33 1.556-3.33 1.556l-6.247 8.944 32.48 18.473c.833.583 2.082.583 2.915 0l13.116-6.612c1.041-.194 1.041-1.555 0-1.944z" fill="#6E84E8"/></svg>