<?xml version="1.0" encoding="utf-8"?><svg width="54" height="67" fill="none" xmlns="http://www.w3.org/2000/svg" viewBox="0 0 54 67"><path d="M52.922 8.172C47.125 2.594 39.14.187 27 .187 14.86.188 6.875 2.595 1.078 8.172L.75 8.5V33c0 14.984 10.39 28.328 25.922 33.14l.328.11.328-.11C42.86 61.329 53.25 47.985 53.25 33V8.5l-.328-.328z" fill="#6E84E8"/><path d="M46.469 11.672C42.203 8.39 35.969 6.969 27 6.969V59.25l.219-.11C39.03 54.767 46.687 44.485 46.687 33V11.781l-.218-.11zM7.531 11.672l-.218.11V33c0 11.484 7.656 21.766 19.468 26.14l.219.11V6.969c-8.969 0-15.203 1.422-19.469 4.703z" fill="#6E84E8"/><path d="M25.25 45.25L14.312 29.937l3.5-2.625 8.641 12.141 9.516-22.64 3.937 1.75-10.937 26.25-3.719.437z" fill="#81E84F"/></svg>