<?xml version="1.0" encoding="utf-8"?><svg viewBox="0 0 170 80" xmlns="http://www.w3.org/2000/svg" xmlns:xlink="http://www.w3.org/1999/xlink"><style>:root>svg{display:none}:root>svg:target{display:block}</style><svg fill="none" viewBox="0 0 70 70" id="calendar" xmlns="http://www.w3.org/2000/svg"><path d="M59.063 4.375h-4.376V2.187C54.688.978 53.71 0 52.5 0c-1.21 0-2.188.978-2.188 2.188v2.187h-4.374V2.187C45.938.978 44.959 0 43.75 0c-1.21 0-2.188.978-2.188 2.188v2.187h-4.374V2.187C37.188.978 36.209 0 35 0c-1.21 0-2.188.978-2.188 2.188v2.187h-4.374V2.187C28.438.978 27.459 0 26.25 0c-1.21 0-2.188.978-2.188 2.188v2.187h-4.375V2.187C19.688.978 18.71 0 17.5 0c-1.21 0-2.188.978-2.188 2.188v2.187h-4.374a8.75 8.75 0 00-8.75 8.75V61.25a8.75 8.75 0 008.75 8.75h48.124a8.75 8.75 0 008.75-8.75V13.125a8.75 8.75 0 00-8.75-8.75zm4.374 56.875a4.38 4.38 0 01-4.374 4.375H10.937a4.379 4.379 0 01-4.374-4.375V13.125a4.378 4.378 0 014.375-4.375h4.374v2.188c0 1.209.979 2.187 2.188 2.187 1.21 0 2.188-.978 2.188-2.188V8.75h4.375v2.188c0 1.209.978 2.187 2.187 2.187 1.21 0 2.188-.978 2.188-2.188V8.75h4.375v2.188c0 1.209.978 2.187 2.187 2.187 1.21 0 2.188-.978 2.188-2.188V8.75h4.374v2.188c0 1.209.979 2.187 2.188 2.187 1.21 0 2.188-.978 2.188-2.188V8.75h4.374v2.188c0 1.209.979 2.187 2.188 2.187 1.21 0 2.188-.978 2.188-2.188V8.75h4.374a4.379 4.379 0 014.376 4.375V61.25z" fill="#6E84E8"/><path d="M10.938 21.875V61.25h48.124V21.875H10.938zm35 4.375v4.375h-4.376V26.25h4.376zm-17.5 13.125h-4.375V35h4.375v4.375zM32.813 35h4.374v4.375h-4.374V35zm-4.376 8.75v4.375h-4.375V43.75h4.375zm4.375 0h4.376v4.375h-4.376V43.75zm8.75 0h4.376v4.375h-4.376V43.75zm0-4.375V35h4.376v4.375h-4.376zM37.188 26.25v4.375h-4.376V26.25h4.376zm-8.75 0v4.375h-4.375V26.25h4.375zm-13.125 0h4.374v4.375h-4.375V26.25zm0 8.75h4.374v4.375h-4.375V35zm0 8.75h4.374v4.375h-4.375V43.75zm0 13.125V52.5h4.374v4.375h-4.375zm8.75 0V52.5h4.375v4.375h-4.375zm8.75 0V52.5h4.374v4.375h-4.374zm8.75 0V52.5h4.374v4.375h-4.374zm13.124 0h-4.374V52.5h4.374v4.375zm0-8.75h-4.374V43.75h4.374v4.375zm0-8.75h-4.374V35h4.374v4.375zm0-8.75h-4.374V26.25h4.374v4.375z" fill="#6E84E8"/></svg><svg fill="none" viewBox="0 0 63 52" id="camera" xmlns="http://www.w3.org/2000/svg"><path d="M53.338 29.5l-5.414 2.722c-1.249.584-2.706.584-3.747 0L14.196 15.306c-.625-.39-1.666-.195-2.082.583l-.625 1.166c-.416.584-.208 1.362.416 1.75L25.23 26c-1.249.972-2.082 2.528-2.082 4.083 0 .778.209 1.556.625 2.334 0 .389-.208 2.139-2.082 3.5-1.874 1.555-3.54 1.555-3.956 1.555H8.158v-1.166h-1.25v-1.167c0-3.5-2.914-6.222-6.662-6.222v22.36c3.748 0 6.663-2.721 6.663-6.221v-1.167h1.249V41.36h9.577s3.748.195 6.454-1.944c2.082-1.75 3.123-3.306 3.332-3.89.416 0 .832.195 1.249.195 2.706 0 5.205-1.75 5.621-4.278l13.325 7.39c.208.194.417 0 .625-.195l5.413-8.556c.416-.389 0-.777-.416-.583zM62.29 32.222c.833-1.36.209-3.11-1.249-3.889l-.624-.389.416-.777-2.498-1.362-6.871 11.473 2.498 1.36.417-.777.833.389c1.457.778 3.33.194 4.163-1.167l2.915-4.86z" fill="#6E84E8"/><path d="M60.208 21.139L36.681 8.11l-3.747 5.445-2.082-1.361 3.54-5.445-1.875-.972-3.539 5.444-2.29-1.36 3.747-5.25-1.873-.973-3.332 5.055-2.29-1.36 3.331-5.056-1.665-.972S22.94.528 21.274.722c-2.498.195-3.33 1.556-3.33 1.556l-6.247 8.944 32.48 18.473c.833.583 2.082.583 2.915 0l13.116-6.612c1.041-.194 1.041-1.555 0-1.944z" fill="#6E84E8"/></svg><svg fill="none" viewBox="0 0 114 80" id="deco" xmlns="http://www.w3.org/2000/svg"><ellipse cx="32.854" cy="35.632" rx="32.854" ry="28.022" fill="#4CFFDC"/><ellipse cx="65.708" cy="21.449" rx="26.125" ry="21.449" fill="#4CFFDC"/><ellipse cx="92.229" cy="42.897" rx="21.771" ry="16.605" fill="#4CFFDC"/><ellipse cx="58.943" cy="58.551" rx="26.125" ry="21.449" fill="#4CFFDC"/></svg><svg fill="none" viewBox="0 0 70 70" id="leaf" xmlns="http://www.w3.org/2000/svg"><path d="M51.953 34.453c0 14.195-10.308 20.78-16.953 20.78s-16.953-6.585-16.953-20.78C18.047 20.257 35 3.828 35 3.828s16.953 16.43 16.953 30.625z" fill="#6E84E8"/><path fill-rule="evenodd" clip-rule="evenodd" d="M34.016 13.022a1.092 1.092 0 00-1.077 1.11v11.015l-4.135-4.135a1.093 1.093 0 10-1.547 1.546l5.682 5.683v6.203l-5.23-5.23a1.095 1.095 0 00-1.855.988c.045.213.153.408.31.56l6.775 6.776v6.203l-5.776-5.776a1.094 1.094 0 10-1.547 1.546l7.323 7.323v8.186c.711.129 1.407.214 2.06.214.041 0 .086-.008.128-.009v-8.39l7.327-7.324a1.095 1.095 0 10-1.546-1.546l-5.781 5.776v-6.203l6.78-6.777a1.093 1.093 0 10-1.546-1.546l-5.234 5.23V28.24l5.687-5.683a1.096 1.096 0 00.016-1.562 1.095 1.095 0 00-1.563.016l-4.14 4.135V14.133a1.094 1.094 0 00-1.11-1.11z" fill="#6E84E8"/><path fill-rule="evenodd" clip-rule="evenodd" d="M34.982 12.576a1.095 1.095 0 00-1.077 1.11v51.377a1.096 1.096 0 001.516 1.025 1.094 1.094 0 00.672-1.025V13.687a1.094 1.094 0 00-1.111-1.111z" fill="#6E84E8"/><path fill-rule="evenodd" clip-rule="evenodd" d="M28.983 20.232a1.093 1.093 0 00-.76 1.88l6.002 6.003a1.094 1.094 0 001.547 0l6.007-6.003a1.092 1.092 0 00-.344-1.802 1.094 1.094 0 00-1.203.256L35 25.794l-5.23-5.23a1.095 1.095 0 00-.786-.333z" fill="#6E84E8"/><path fill-rule="evenodd" clip-rule="evenodd" d="M27.89 28.435a1.093 1.093 0 00-.761 1.88l7.096 7.097a1.094 1.094 0 001.547 0l7.1-7.097a1.095 1.095 0 10-1.546-1.546L35 35.092l-6.324-6.323a1.093 1.093 0 00-.786-.334z" fill="#6E84E8"/><path fill-rule="evenodd" clip-rule="evenodd" d="M27.343 37.185a1.093 1.093 0 00-.761 1.88l7.643 7.644a1.094 1.094 0 001.547 0l7.648-7.644a1.096 1.096 0 00.016-1.562 1.093 1.093 0 00-1.563.016L35 44.389l-6.87-6.87a1.093 1.093 0 00-.787-.334z" fill="#6E84E8"/></svg><svg fill="none" viewBox="0 0 170 80" id="logo" xmlns="http://www.w3.org/2000/svg"><ellipse cx="46.364" cy="36.364" rx="46.364" ry="33.939" fill="#4CFFDC"/><ellipse cx="93.242" cy="26.667" rx="42.758" ry="26.667" fill="#4CFFDC"/><ellipse cx="136.515" cy="36.364" rx="33.485" ry="24.242" fill="#4CFFDC"/><ellipse cx="103.03" cy="46.061" rx="46.364" ry="33.939" fill="#4CFFDC"/><path d="M54.328 45.156c5.106-.136 7.723.602 8.984 1.617-.167-11.718-10.421-21.02-22.367-19.882-10.422.996-18.258 9.965-18.258 20.425v4.09c2.344-1.953 17.188-5.86 31.641-6.25z" fill="#F85565"/><path d="M54.328 45.156a33.062 33.062 0 014.23.125c-.75-10.996-8.351-19.48-17.144-18.39-8.012.996-14.039 9.965-14.039 20.425v2.09c6.012-1.879 16.582-3.968 26.953-4.25z" fill="#00ADFE"/><path d="M52.723 45.215C52.238 34.25 47.496 25.8 42.008 26.89c-5.004.996-8.774 9.965-8.774 20.425v.543a114.29 114.29 0 0119.489-2.644z" fill="#F8DC25"/><path d="M42.61 22.36l-.587 4.828h1.954l-.586-4.829a.39.39 0 10-.782 0z" fill="#D8D8DD"/><path d="M46.906 45.645c-.152-11.176-2.07-19.856-4.297-18.75-1.953.976-3.449 9.617-3.515 19.812 2.476-.426 5.105-.789 7.812-1.063z" fill="#4BC190"/><path opacity=".2" d="M40.656 38.125c-4.937 1.754-14.453 8.984-17.968 13.281 2.343-1.953 17.187-5.86 31.64-6.25 5.106-.136 7.723.602 8.984 1.617a20.004 20.004 0 00-2.906-10.109c-5.297-1.406-12.836-.992-19.75 1.461z" fill="#393C54"/><path d="M22.688 51.406s14.453-1.562 26.171-1.562c11.72 0 14.453 1.562 14.453 1.562a7.03 7.03 0 003.516-6.64c-.39-7.032-14.453-8.594-26.562-4.297-4.938 1.754-14.063 6.64-17.578 10.937z" fill="#515570"/><path opacity=".3" d="M63.875 40.309c-.84 3.879-3.82 6.343-8.766 7.582-5.656 1.414-18.984 1.226-26.953-1.133-2.234 1.511-4.199 3.125-5.468 4.648 0 0 14.453-1.562 26.171-1.562 11.72 0 14.453 1.562 14.453 1.562a7.03 7.03 0 003.516-6.64c-.105-1.88-1.191-3.364-2.953-4.457z" fill="#393C54"/><path d="M57.203 22.11c0-1.505-3.18-2.735-7.101-2.735-3.922 0-7.102 1.219-7.102 2.734 0 .254 14.203.254 14.203 0zM28.797 21.992c0 1.504 3.18 2.735 7.101 2.735 3.922 0 7.102-1.23 7.102-2.735 0-.273-14.203-.273-14.203 0z" fill="#F8DC25"/><path opacity=".5" d="M43.023 22.11c.489.253 14.18.25 14.18 0 0-.848-1.012-1.606-2.598-2.102-3.402 1.762-11.167 2.101-11.582 2.101zM35.898 24.715c3.907 0 7.102-1.219 7.102-2.735 0-.058-.645-.101-1.656-.132-1.926 1.57-7.555 2.14-9.672 1.433-1.645-.547-2.133-1.097-2.281-1.375-.391.024-.594.055-.594.086 0 1.504 3.18 2.723 7.101 2.723z" fill="#F2BC0F"/><path d="M82.664 37.76h.693c.279 0 .51-.037.693-.11a1.22 1.22 0 00.473-.374l4.389-5.555c.183-.235.374-.396.572-.484.205-.095.462-.143.77-.143h2.552l-5.357 6.611c-.169.205-.33.378-.484.517a2.21 2.21 0 01-.495.341c.242.088.458.213.649.374.198.161.389.367.572.616L93.213 47h-2.618c-.352 0-.616-.048-.792-.143a1.298 1.298 0 01-.429-.44l-4.499-5.874a1.282 1.282 0 00-.495-.407c-.183-.088-.444-.132-.781-.132h-.935V47h-2.959V31.083h2.959v6.677zm15.042-2.046V47H94.99V35.714h2.717zm.407-3.289c0 .235-.047.455-.143.66a1.765 1.765 0 01-.385.539 1.823 1.823 0 01-.55.374c-.212.088-.44.132-.682.132-.234 0-.458-.044-.67-.132a1.866 1.866 0 01-.54-.374 1.868 1.868 0 01-.374-.539 1.657 1.657 0 01-.132-.66c0-.242.044-.47.132-.682.096-.213.22-.396.374-.55.154-.154.334-.275.54-.363.212-.095.436-.143.67-.143.242 0 .47.048.682.143.213.088.396.209.55.363.162.154.29.337.385.55.096.213.143.44.143.682zM108.728 47c-.352 0-.583-.165-.693-.495l-.22-1.089a6.75 6.75 0 01-.737.715 4.572 4.572 0 01-.836.55 4.01 4.01 0 01-.957.352 4.347 4.347 0 01-1.1.132 3.733 3.733 0 01-1.694-.385 3.85 3.85 0 01-1.331-1.111c-.367-.491-.653-1.096-.858-1.815-.198-.719-.297-1.54-.297-2.464 0-.836.114-1.613.341-2.332a5.674 5.674 0 01.979-1.87 4.504 4.504 0 011.529-1.232c.594-.3 1.261-.451 2.002-.451.631 0 1.17.103 1.617.308.447.198.847.466 1.199.803v-5.962h2.717V47h-1.661zm-3.619-1.991c.565 0 1.045-.117 1.441-.352.396-.235.77-.568 1.122-1.001v-5.06c-.308-.374-.645-.638-1.012-.792a2.927 2.927 0 00-1.166-.231c-.411 0-.785.077-1.122.231-.33.154-.612.389-.847.704-.227.308-.403.704-.528 1.188-.125.477-.187 1.041-.187 1.694 0 .66.051 1.221.154 1.683.11.455.264.829.462 1.122.198.286.44.495.726.627.286.125.605.187.957.187zm11.337-.451h6.369V47h-9.328V31.094h2.959v13.464zm11.145-8.844V47h-2.717V35.714h2.717zm.407-3.289c0 .235-.048.455-.143.66a1.767 1.767 0 01-.385.539 1.82 1.82 0 01-.55.374c-.213.088-.44.132-.682.132-.235 0-.458-.044-.671-.132a1.86 1.86 0 01-.913-.913 1.657 1.657 0 01-.132-.66c0-.242.044-.47.132-.682.095-.213.22-.396.374-.55.154-.154.334-.275.539-.363.213-.095.436-.143.671-.143.242 0 .469.048.682.143.213.088.396.209.55.363.161.154.29.337.385.55.095.213.143.44.143.682zM131.155 47v-9.24l-.979-.154a1.076 1.076 0 01-.517-.22c-.125-.11-.187-.264-.187-.462v-1.111h1.683v-.836c0-.645.095-1.225.286-1.738.198-.513.476-.95.836-1.309.366-.36.81-.634 1.331-.825.52-.19 1.107-.286 1.76-.286.52 0 1.004.07 1.452.209l-.055 1.364c-.015.213-.114.345-.297.396a2.38 2.38 0 01-.638.077 3.16 3.16 0 00-.869.11c-.25.066-.462.187-.638.363a1.64 1.64 0 00-.407.682c-.088.279-.132.627-.132 1.045v.748h2.937v1.936h-2.849V47h-2.717zm11.893-11.462c.711 0 1.364.114 1.958.341a4.26 4.26 0 011.551 1.001c.432.433.77.968 1.012 1.606.242.63.363 1.353.363 2.167 0 .205-.011.378-.033.517a.754.754 0 01-.099.319.414.414 0 01-.187.165.918.918 0 01-.308.044h-6.974c.08 1.159.392 2.01.935 2.552.542.543 1.261.814 2.156.814.44 0 .817-.051 1.133-.154.322-.103.601-.216.836-.341.242-.125.451-.238.627-.341a1.08 1.08 0 01.528-.154.59.59 0 01.286.066c.08.044.15.106.209.187l.792.99a4.657 4.657 0 01-1.012.891 6.034 6.034 0 01-1.177.572c-.404.14-.818.238-1.243.297a8.777 8.777 0 01-1.221.088 6.101 6.101 0 01-2.189-.385 4.99 4.99 0 01-1.76-1.155c-.499-.513-.891-1.144-1.177-1.892-.286-.755-.429-1.628-.429-2.618 0-.77.124-1.492.374-2.167a5.194 5.194 0 011.067-1.771 5.074 5.074 0 011.705-1.199c.674-.293 1.433-.44 2.277-.44zm.055 1.947c-.792 0-1.412.224-1.859.671-.448.447-.734 1.082-.858 1.903h5.104c0-.352-.048-.682-.143-.99a2.301 2.301 0 00-.44-.825 2.033 2.033 0 00-.748-.55 2.492 2.492 0 00-1.056-.209z" fill="#fff"/></svg><svg fill="none" viewBox="0 0 54 67" id="protect" xmlns="http://www.w3.org/2000/svg"><path d="M52.922 8.172C47.125 2.594 39.14.187 27 .187 14.86.188 6.875 2.595 1.078 8.172L.75 8.5V33c0 14.984 10.39 28.328 25.922 33.14l.328.11.328-.11C42.86 61.329 53.25 47.985 53.25 33V8.5l-.328-.328z" fill="#6E84E8"/><path d="M46.469 11.672C42.203 8.39 35.969 6.969 27 6.969V59.25l.219-.11C39.03 54.767 46.687 44.485 46.687 33V11.781l-.218-.11zM7.531 11.672l-.218.11V33c0 11.484 7.656 21.766 19.468 26.14l.219.11V6.969c-8.969 0-15.203 1.422-19.469 4.703z" fill="#6E84E8"/><path d="M25.25 45.25L14.312 29.937l3.5-2.625 8.641 12.141 9.516-22.64 3.937 1.75-10.937 26.25-3.719.437z" fill="#81E84F"/></svg></svg>